<?xml version="1.0"?>
<svg xmlns="http://www.w3.org/2000/svg" xmlns:xlink="http://www.w3.org/1999/xlink" xmlns:svgjs="http://svgjs.com/svgjs" version="1.1" width="512" height="512" x="0" y="0" viewBox="0 0 64 64" style="enable-background:new 0 0 512 512" xml:space="preserve" class=""><g><path xmlns="http://www.w3.org/2000/svg" d="M61,48V17a3.009,3.009,0,0,0-3-3H51V7a3.009,3.009,0,0,0-3-3H16a3.009,3.009,0,0,0-3,3v7H6a3.009,3.009,0,0,0-3,3V48a1,1,0,0,0-1,1v6a3.009,3.009,0,0,0,3,3H59a3.009,3.009,0,0,0,3-3V49A1,1,0,0,0,61,48ZM51,16h7a1,1,0,0,1,1,1V48H57V20a1,1,0,0,0-1-1H51ZM15,7a1,1,0,0,1,1-1H48a1,1,0,0,1,1,1V35a1,1,0,0,1-1,1H16a1,1,0,0,1-1-1Zm1,31H48a3.009,3.009,0,0,0,3-3V21h4V48H9V21h4V35A3.009,3.009,0,0,0,16,38ZM38,50v2H26V50ZM5,17a1,1,0,0,1,1-1h7v3H8a1,1,0,0,0-1,1V48H5ZM60,55a1,1,0,0,1-1,1H5a1,1,0,0,1-1-1V50H24v3a1,1,0,0,0,1,1H39a1,1,0,0,0,1-1V50H60Z" fill="#017dfd" data-original="#000000" style="" class=""/><path xmlns="http://www.w3.org/2000/svg" d="M25.492,21.68a3.073,3.073,0,0,1,1.947.639l-1.924,1.924h-1a1,1,0,0,0-.814.419l-3.535,4.949a1,1,0,0,0,.106,1.288L23.1,33.728a1,1,0,0,0,1.288.107l4.95-3.536a1,1,0,0,0,.419-.814v-1l1.951-1.951,5.824,5.833A3.971,3.971,0,0,0,40.36,33.54,4.005,4.005,0,0,0,43.2,26.7l-5.122-5.122,6.238-6.238a4,4,0,1,0-5.656-5.656l-6,6a2.9,2.9,0,0,1-.146-.915,6.938,6.938,0,0,0-2.045-5.042A7.017,7.017,0,0,0,22.5,8.378a1,1,0,0,0-.273,1.61l3.56,3.552L25.43,14.6l-1.061.355-3.562-3.562a1.011,1.011,0,0,0-.875-.279,1,1,0,0,0-.734.554,7.076,7.076,0,0,0,.636,7.124A6.968,6.968,0,0,0,25.492,21.68Zm2.559,5.684a1,1,0,0,0-.293.707v.9l-3.842,2.744-1.631-1.631,2.744-3.841h.9a1,1,0,0,0,.707-.293l5.657-5.657,1.414,1.414Zm13.732.753a2.012,2.012,0,0,1,.006,2.83,2.055,2.055,0,0,1-2.841.007L33.123,25.12l2-2a1,1,0,0,0,1.414,0L36.661,23ZM40.071,11.1a2.047,2.047,0,0,1,2.828,0,2,2,0,0,1,0,2.828L35.828,21,33,18.171Zm-19.5,2.88,2.827,2.826a1,1,0,0,0,1.024.241l2.12-.71a1,1,0,0,0,.631-.63l.71-2.121a1,1,0,0,0-.242-1.025L24.81,9.742a5.014,5.014,0,0,1,4.243,1.4,4.959,4.959,0,0,1,1.457,3.6,4.947,4.947,0,0,0,.63,2.453l-.261.261a1,1,0,0,0,0,1.414h0L28.854,20.9a5.081,5.081,0,0,0-3.329-1.224,4.9,4.9,0,0,1-4.076-2.067A5.03,5.03,0,0,1,20.566,13.981Z" fill="#017dfd" data-original="#000000" style="" class=""/></g></svg>
