<?xml version="1.0"?>
<svg xmlns="http://www.w3.org/2000/svg" xmlns:xlink="http://www.w3.org/1999/xlink" xmlns:svgjs="http://svgjs.com/svgjs" version="1.1" width="512" height="512" x="0" y="0" viewBox="0 0 512 512" style="enable-background:new 0 0 512 512" xml:space="preserve" class=""><g><path xmlns="http://www.w3.org/2000/svg" d="m192 32h16v16h-16zm0 0" fill="#3590f3" data-original="#000000" style=""/><path xmlns="http://www.w3.org/2000/svg" d="m80 32h16v16h-16zm0 0" fill="#3590f3" data-original="#000000" style=""/><path xmlns="http://www.w3.org/2000/svg" d="m112 32h64v16h-64zm0 0" fill="#3590f3" data-original="#000000" style=""/><path xmlns="http://www.w3.org/2000/svg" d="m144 480c17.671875 0 32-14.328125 32-32s-14.328125-32-32-32-32 14.328125-32 32 14.328125 32 32 32zm0-48c8.835938 0 16 7.164062 16 16s-7.164062 16-16 16-16-7.164062-16-16 7.164062-16 16-16zm0 0" fill="#3590f3" data-original="#000000" style=""/><path xmlns="http://www.w3.org/2000/svg" d="m344 168c-39.765625 0-72 32.234375-72 72s32.234375 72 72 72 72-32.234375 72-72c-.046875-39.746094-32.253906-71.953125-72-72zm0 128c-30.929688 0-56-25.070312-56-56s25.070312-56 56-56 56 25.070312 56 56c-.035156 30.914062-25.085938 55.964844-56 56zm0 0" fill="#3590f3" data-original="#000000" style=""/><path xmlns="http://www.w3.org/2000/svg" d="m344 208c-17.671875 0-32 14.328125-32 32s14.328125 32 32 32 32-14.328125 32-32-14.328125-32-32-32zm0 48c-8.835938 0-16-7.164062-16-16s7.164062-16 16-16 16 7.164062 16 16-7.164062 16-16 16zm0 0" fill="#3590f3" data-original="#000000" style=""/><path xmlns="http://www.w3.org/2000/svg" d="m511.40625 225.929688-.476562-5.738282-33.867188-8.320312c-1.003906-4.742188-2.257812-9.429688-3.757812-14.039063l25.144531-24.167969-2.449219-5.199218c-4.023438-8.503906-8.753906-16.65625-14.136719-24.367188l-3.289062-4.714844-33.460938 9.753907c-3.230469-3.589844-6.648437-7.007813-10.242187-10.242188l9.753906-33.460937-4.714844-3.289063c-7.714844-5.386719-15.867187-10.117187-24.375-14.144531l-5.199218-2.457031-24.167969 25.144531c-4.609375-1.5-9.296875-2.753906-14.039063-3.757812l-8.320312-33.867188-5.738282-.476562c-9.363281-.785157-18.777343-.785157-28.140624 0l-5.738282.476562-8.320312 33.867188c-4.742188 1.003906-9.429688 2.257812-14.039063 3.757812l-13.832031-14.382812v-72.304688c0-13.253906-10.746094-24-24-24h-240c-13.253906 0-24 10.746094-24 24v464c0 13.253906 10.746094 24 24 24h240c13.253906 0 24-10.746094 24-24v-104.3125l13.832031-14.398438c4.609375 1.507813 9.296875 2.761719 14.039063 3.757813l8.320312 33.847656 5.71875.488281c4.691406.402344 9.425782.601563 14.089844.601563s9.398438-.199219 14.089844-.601563l5.71875-.488281 8.320312-33.847656c4.742188-.996094 9.429688-2.25 14.039063-3.757813l24.167969 25.136719 5.199218-2.457031c8.503906-4.023438 16.652344-8.75 24.367188-14.128906l4.714844-3.289063-9.753907-33.460937c3.589844-3.234375 7.007813-6.652344 10.242188-10.242188l33.460937 9.753906 3.289063-4.714843c5.382812-7.707031 10.117187-15.855469 14.144531-24.351563l2.457031-5.199218-25.144531-24.167969c1.507812-4.609375 2.761719-9.296875 3.757812-14.039063l33.867188-8.320312.476562-5.738282c.386719-4.742187.585938-9.476562.585938-14.070312s-.199219-9.328125-.59375-14.070312zm-495.40625-201.929688c0-4.417969 3.582031-8 8-8h240c4.417969 0 8 3.582031 8 8v40h-256zm0 56h256v8.257812c-8.335938 3.960938-16.332031 8.605469-23.902344 13.886719l-4.714844 3.289063 9.753907 33.460937c-3.589844 3.234375-7.007813 6.652344-10.242188 10.242188l-33.460937-9.753907-3.289063 4.714844c-5.386719 7.710938-10.117187 15.863282-14.144531 24.367188l-2.457031 5.199218 25.144531 24.167969c-1.503906 4.609375-2.757812 9.296875-3.757812 14.039063l-33.867188 8.320312-.476562 5.738282c-.386719 4.742187-.585938 9.476562-.585938 14.070312s.199219 9.328125.59375 14.070312l.476562 5.738282 33.867188 8.328125c1 4.742187 2.253906 9.425781 3.757812 14.03125l-25.144531 24.167969 2.457031 5.199218c4.027344 8.503906 8.753907 16.652344 14.136719 24.367188l3.289063 4.714844 33.460937-9.753907c3.234375 3.589844 6.652344 7.007813 10.242188 10.242188l-9.753907 33.460937 4.714844 3.289063c3.125 2.183593 6.398438 4.183593 9.644532 6.144531h-241.742188zm256 408c0 4.417969-3.582031 8-8 8h-240c-4.417969 0-8-3.582031-8-8v-88h256zm223.832031-240.960938-32.664062 8-.878907 5.167969c-1.242187 7.285157-3.160156 14.433594-5.730468 21.359375l-1.832032 4.921875 24.257813 23.3125c-2.171875 4.167969-4.527344 8.230469-7.074219 12.183594l-32.292968-9.410156-3.351563 4c-4.726563 5.675781-9.953125 10.90625-15.625 15.632812l-4 3.351563 9.40625 32.296875c-3.949219 2.542969-8.011719 4.898437-12.183594 7.066406l-23.304687-24.234375-4.910156 1.816406c-6.929688 2.566406-14.082032 4.484375-21.367188 5.726563l-5.167969.882812-8 32.664063c-4.714843.222656-9.371093.222656-14.082031 0l-8-32.664063-5.167969-.882812c-7.316406-1.21875-14.5-3.117188-21.464843-5.671875l-4.910157-1.816406-23.304687 24.234374c-4.160156-2.160156-8.222656-4.515624-12.183594-7.066406l9.40625-32.292968-4-3.351563c-5.667969-4.726563-10.898438-9.960937-15.621094-15.632813l-3.351562-4-32.296875 9.40625c-2.542969-3.941406-4.902344-8-7.074219-12.183593l24.257812-23.3125-1.878906-4.941407c-2.570312-6.925781-4.488281-14.074218-5.730468-21.355468l-.878907-5.167969-32.664062-8c-.113281-2.398437-.167969-4.726563-.167969-7.039063s.054688-4.664062.167969-7.039062l32.664062-8 .878907-5.167969c1.238281-7.304687 3.15625-14.480469 5.730468-21.433593l1.824219-4.917969-24.25-23.304688c2.171875-4.160156 4.527344-8.222656 7.074219-12.183593l32.292968 9.40625 3.351563-4c4.722656-5.675782 9.953125-10.90625 15.625-15.628907l4-3.355469-9.40625-32.292968c3.949219-2.546875 8.011719-4.902344 12.183594-7.074219l23.304687 24.25 4.917969-1.824219c6.929687-2.566406 14.078125-4.484375 21.359375-5.730468l5.167969-.878907 8-32.664062c4.753906-.222657 9.328125-.222657 14.082031 0l8 32.664062 5.167969.878907c7.28125 1.246093 14.433593 3.164062 21.359375 5.730468l4.917968 1.824219 23.304688-24.25c4.160156 2.167969 8.222656 4.523437 12.183594 7.074219l-9.40625 32.292968 4 3.355469c5.675781 4.71875 10.90625 9.949219 15.632812 15.621094l3.351563 4 32.296875-9.40625c2.542968 3.953125 4.898437 8.011719 7.070312 12.183594l-24.246094 23.304687 1.824219 4.917969c2.566407 6.929687 4.480469 14.078125 5.726563 21.363281l.878906 5.167969 32.664062 8c.113282 2.398437.167969 4.726563.167969 7.039063s.082031 4.703124-.03125 7.078124zm0 0" fill="#3590f3" data-original="#000000" style=""/></g></svg>
